<svg xmlns="http://www.w3.org/2000/svg">
  <symbol id="gg-chevron-double-down-o" width="24" height="24" viewBox="0 0 24 24" fill="none">
    <path
      d="M7.75732 8.46448L9.17154 7.05026L12 9.87869L14.8284 7.05029L16.2426 8.46451L12 12.7071L7.75732 8.46448Z"
      fill="currentColor" />
    <path
      d="M9.17154 11.2929L7.75732 12.7071L11.9999 16.9498L16.2426 12.7071L14.8284 11.2929L12 14.1213L9.17154 11.2929Z"
      fill="currentColor" />
    <path fill-rule="evenodd" clip-rule="evenodd"
      d="M23 12C23 18.0751 18.0751 23 12 23C5.92487 23 1 18.0751 1 12C1 5.92487 5.92487 1 12 1C18.0751 1 23 5.92487 23 12ZM21 12C21 16.9706 16.9706 21 12 21C7.02944 21 3 16.9706 3 12C3 7.02944 7.02944 3 12 3C16.9706 3 21 7.02944 21 12Z"
      fill="currentColor" />
  </symbol>
  <symbol id="gg-chevron-double-down-r" width="24" height="24" viewBox="0 0 24 24" fill="none">
    <path
      d="M7.75732 8.46448L9.17154 7.05026L12 9.87869L14.8284 7.05029L16.2426 8.46451L12 12.7071L7.75732 8.46448Z"
      fill="currentColor" />
    <path
      d="M9.17154 11.2929L7.75732 12.7071L11.9999 16.9498L16.2426 12.7071L14.8284 11.2929L12 14.1213L9.17154 11.2929Z"
      fill="currentColor" />
    <path fill-rule="evenodd" clip-rule="evenodd"
      d="M1 5C1 2.79086 2.79086 1 5 1H19C21.2091 1 23 2.79086 23 5V19C23 21.2091 21.2091 23 19 23H5C2.79086 23 1 21.2091 1 19V5ZM5 3H19C20.1046 3 21 3.89543 21 5V19C21 20.1046 20.1046 21 19 21H5C3.89543 21 3 20.1046 3 19V5C3 3.89543 3.89543 3 5 3Z"
      fill="currentColor" />
  </symbol>
  <symbol id="gg-chevron-double-down" width="24" height="24" viewBox="0 0 24 24" fill="none">
    <path
      d="M7.75735 5.63605L6.34314 7.05026L12 12.7071L17.6569 7.05029L16.2427 5.63608L12 9.87872L7.75735 5.63605Z"
      fill="currentColor" />
    <path
      d="M6.34314 12.7071L7.75735 11.2929L12 15.5356L16.2427 11.2929L17.6569 12.7071L12 18.364L6.34314 12.7071Z"
      fill="currentColor" />
  </symbol>
  <symbol id="gg-chevron-double-left-o" width="24" height="24" viewBox="0 0 24 24" fill="none">
    <path
      d="M12.7071 9.1716L11.2929 7.75739L7.05024 12L11.2929 16.2426L12.7071 14.8284L9.87869 12L12.7071 9.1716Z"
      fill="currentColor" />
    <path
      d="M15.5355 7.75739L16.9497 9.1716L14.1213 12L16.9497 14.8284L15.5355 16.2426L11.2929 12L15.5355 7.75739Z"
      fill="currentColor" />
    <path fill-rule="evenodd" clip-rule="evenodd"
      d="M23 12C23 18.0751 18.0751 23 12 23C5.92487 23 1 18.0751 1 12C1 5.92487 5.92487 1 12 1C18.0751 1 23 5.92487 23 12ZM21 12C21 16.9706 16.9706 21 12 21C7.02944 21 3 16.9706 3 12C3 7.02944 7.02944 3 12 3C16.9706 3 21 7.02944 21 12Z"
      fill="currentColor" />
  </symbol>
  <symbol id="gg-chevron-double-left-r" width="24" height="24" viewBox="0 0 24 24" fill="none">
    <path
      d="M12.7071 9.1716L11.2929 7.75739L7.05024 12L11.2929 16.2426L12.7071 14.8284L9.87869 12L12.7071 9.1716Z"
      fill="currentColor" />
    <path
      d="M15.5355 7.75739L16.9497 9.1716L14.1213 12L16.9497 14.8284L15.5355 16.2426L11.2929 12L15.5355 7.75739Z"
      fill="currentColor" />
    <path fill-rule="evenodd" clip-rule="evenodd"
      d="M1 5C1 2.79086 2.79086 1 5 1H19C21.2091 1 23 2.79086 23 5V19C23 21.2091 21.2091 23 19 23H5C2.79086 23 1 21.2091 1 19V5ZM5 3H19C20.1046 3 21 3.89543 21 5V19C21 20.1046 20.1046 21 19 21H5C3.89543 21 3 20.1046 3 19V5C3 3.89543 3.89543 3 5 3Z"
      fill="currentColor" />
  </symbol>
  <symbol id="gg-chevron-double-left" width="24" height="24" viewBox="0 0 24 24" fill="none">
    <path
      d="M18.3639 7.75735L16.9497 6.34314L11.2929 12L16.9497 17.6568L18.3639 16.2426L14.1213 12L18.3639 7.75735Z"
      fill="currentColor" />
    <path
      d="M11.2929 6.34314L12.7071 7.75735L8.46447 12L12.7071 16.2426L11.2929 17.6568L5.63605 12L11.2929 6.34314Z"
      fill="currentColor" />
  </symbol>
  <symbol id="gg-chevron-double-right-o" width="24" height="24" viewBox="0 0 24 24" fill="none">
    <path
      d="M8.46448 7.75739L7.05026 9.1716L9.87869 12L7.05029 14.8284L8.46451 16.2426L12.7071 12L8.46448 7.75739Z"
      fill="currentColor" />
    <path
      d="M11.2929 9.1716L12.7071 7.75739L16.9498 12L12.7071 16.2426L11.2929 14.8284L14.1213 12L11.2929 9.1716Z"
      fill="currentColor" />
    <path fill-rule="evenodd" clip-rule="evenodd"
      d="M1 12C1 18.0751 5.92487 23 12 23C18.0751 23 23 18.0751 23 12C23 5.92487 18.0751 1 12 1C5.92487 1 1 5.92487 1 12ZM3 12C3 16.9706 7.02944 21 12 21C16.9706 21 21 16.9706 21 12C21 7.02944 16.9706 3 12 3C7.02944 3 3 7.02944 3 12Z"
      fill="currentColor" />
  </symbol>
  <symbol id="gg-chevron-double-right-r" width="24" height="24" viewBox="0 0 24 24" fill="none">
    <path
      d="M8.46448 7.75739L7.05026 9.1716L9.87869 12L7.05029 14.8284L8.46451 16.2426L12.7071 12L8.46448 7.75739Z"
      fill="currentColor" />
    <path
      d="M11.2929 9.1716L12.7071 7.75739L16.9498 12L12.7071 16.2426L11.2929 14.8284L14.1213 12L11.2929 9.1716Z"
      fill="currentColor" />
    <path fill-rule="evenodd" clip-rule="evenodd"
      d="M23 5C23 2.79086 21.2091 1 19 1H5C2.79086 1 1 2.79086 1 5V19C1 21.2091 2.79086 23 5 23H19C21.2091 23 23 21.2091 23 19V5ZM19 3H5C3.89543 3 3 3.89543 3 5V19C3 20.1046 3.89543 21 5 21H19C20.1046 21 21 20.1046 21 19V5C21 3.89543 20.1046 3 19 3Z"
      fill="currentColor" />
  </symbol>
  <symbol id="gg-chevron-double-right" width="24" height="24" viewBox="0 0 24 24" fill="none">
    <path
      d="M5.63605 7.75735L7.05026 6.34314L12.7071 12L7.05029 17.6568L5.63608 16.2426L9.87869 12L5.63605 7.75735Z"
      fill="currentColor" />
    <path
      d="M12.7071 6.34314L11.2929 7.75735L15.5356 12L11.2929 16.2426L12.7072 17.6568L18.364 12L12.7071 6.34314Z"
      fill="currentColor" />
  </symbol>
  <symbol id="gg-chevron-double-up-o" width="24" height="24" viewBox="0 0 24 24" fill="none">
    <path
      d="M14.8284 12.7071L16.2426 11.2929L12 7.05027L7.75739 11.2929L9.1716 12.7071L12 9.87869L14.8284 12.7071Z"
      fill="currentColor" />
    <path
      d="M14.8284 16.9497L16.2426 15.5355L12 11.2929L7.75739 15.5355L9.1716 16.9497L12 14.1213L14.8284 16.9497Z"
      fill="currentColor" />
    <path fill-rule="evenodd" clip-rule="evenodd"
      d="M1 12C1 18.0751 5.92487 23 12 23C18.0751 23 23 18.0751 23 12C23 5.92487 18.0751 1 12 1C5.92487 1 1 5.92487 1 12ZM3 12C3 16.9706 7.02944 21 12 21C16.9706 21 21 16.9706 21 12C21 7.02944 16.9706 3 12 3C7.02944 3 3 7.02944 3 12Z"
      fill="currentColor" />
  </symbol>
  <symbol id="gg-chevron-double-up-r" width="24" height="24" viewBox="0 0 24 24" fill="none">
    <path
      d="M14.8284 12.4813L16.2426 11.067L12 6.82444L7.75732 11.0671L9.17154 12.4813L12 9.65286L14.8284 12.4813Z"
      fill="currentColor" />
    <path
      d="M14.8284 16.7239L16.2426 15.3097L12 11.0671L7.75732 15.3097L9.17154 16.7239L12 13.8955L14.8284 16.7239Z"
      fill="currentColor" />
    <path fill-rule="evenodd" clip-rule="evenodd"
      d="M23 4.77411C23 2.56497 21.2091 0.774109 19 0.774109H5C2.79086 0.774109 1 2.56497 1 4.77411V18.7741C1 20.9832 2.79086 22.7741 5 22.7741H19C21.2091 22.7741 23 20.9832 23 18.7741V4.77411ZM19 2.77411H5C3.89543 2.77411 3 3.66954 3 4.77411V18.7741C3 19.8787 3.89543 20.7741 5 20.7741H19C20.1046 20.7741 21 19.8787 21 18.7741V4.77411C21 3.66954 20.1046 2.77411 19 2.77411Z"
      fill="currentColor" />
  </symbol>
  <symbol id="gg-chevron-double-up" width="24" height="24" viewBox="0 0 24 24" fill="none">
    <path
      d="M17.6569 11.2929L16.2427 12.7071L12 8.46444L7.75735 12.7071L6.34314 11.2929L12 5.63605L17.6569 11.2929Z"
      fill="currentColor" />
    <path
      d="M17.6569 16.9497L16.2427 18.3639L12 14.1213L7.75735 18.364L6.34314 16.9498L12 11.2929L17.6569 16.9497Z"
      fill="currentColor" />
  </symbol>
  <symbol id="gg-chevron-down-o" width="24" height="24" viewBox="0 0 24 24" fill="none">
    <path
      d="M7.75745 10.5858L9.17166 9.17154L12.0001 12L14.8285 9.17157L16.2427 10.5858L12.0001 14.8284L7.75745 10.5858Z"
      fill="currentColor" />
    <path fill-rule="evenodd" clip-rule="evenodd"
      d="M1 12C1 5.92487 5.92487 1 12 1C18.0751 1 23 5.92487 23 12C23 18.0751 18.0751 23 12 23C5.92487 23 1 18.0751 1 12ZM12 21C7.02944 21 3 16.9706 3 12C3 7.02944 7.02944 3 12 3C16.9706 3 21 7.02944 21 12C21 16.9706 16.9706 21 12 21Z"
      fill="currentColor" />
  </symbol>
  <symbol id="gg-chevron-down-r" width="24" height="24" viewBox="0 0 24 24" fill="none">
    <path
      d="M7.75739 10.5858L9.1716 9.17154L12 12L14.8284 9.17157L16.2426 10.5858L12 14.8284L7.75739 10.5858Z"
      fill="currentColor" />
    <path fill-rule="evenodd" clip-rule="evenodd"
      d="M1 5C1 2.79086 2.79086 1 5 1H19C21.2091 1 23 2.79086 23 5V19C23 21.2091 21.2091 23 19 23H5C2.79086 23 1 21.2091 1 19V5ZM5 3H19C20.1046 3 21 3.89543 21 5V19C21 20.1046 20.1046 21 19 21H5C3.89543 21 3 20.1046 3 19V5C3 3.89543 3.89543 3 5 3Z"
      fill="currentColor" />
  </symbol>
  <symbol id="gg-chevron-down" width="24" height="24" viewBox="0 0 24 24" fill="none">
    <path
      d="M6.34317 7.75732L4.92896 9.17154L12 16.2426L19.0711 9.17157L17.6569 7.75735L12 13.4142L6.34317 7.75732Z"
      fill="currentColor" />
  </symbol>
  <symbol id="gg-chevron-left-o" width="24" height="24" viewBox="0 0 24 24" fill="none">
    <path
      d="M12 7.75739L13.4142 9.1716L10.5858 12L13.4142 14.8285L12 16.2427L7.75736 12L12 7.75739Z"
      fill="currentColor" />
    <path fill-rule="evenodd" clip-rule="evenodd"
      d="M12 1C18.0751 1 23 5.92487 23 12C23 18.0751 18.0751 23 12 23C5.92487 23 1 18.0751 1 12C1 5.92487 5.92487 1 12 1ZM3 12C3 7.02944 7.02944 3 12 3C16.9706 3 21 7.02944 21 12C21 16.9706 16.9706 21 12 21C7.02944 21 3 16.9706 3 12Z"
      fill="currentColor" />
  </symbol>
  <symbol id="gg-chevron-left-r" width="24" height="24" viewBox="0 0 24 24" fill="none">
    <path
      d="M13 7.75739L14.4142 9.1716L11.5858 12L14.4142 14.8284L13 16.2426L8.75736 12L13 7.75739Z"
      fill="currentColor" />
    <path fill-rule="evenodd" clip-rule="evenodd"
      d="M19 1C21.2091 1 23 2.79086 23 5V19C23 21.2091 21.2091 23 19 23H5C2.79086 23 1 21.2091 1 19V5C1 2.79086 2.79086 1 5 1H19ZM21 5V19C21 20.1046 20.1046 21 19 21H5C3.89543 21 3 20.1046 3 19L3 5C3 3.89543 3.89543 3 5 3L19 3C20.1046 3 21 3.89543 21 5Z"
      fill="currentColor" />
  </symbol>
  <symbol id="gg-chevron-left" width="24" height="24" viewBox="0 0 24 24" fill="none">
    <path
      d="M16.2426 6.34317L14.8284 4.92896L7.75739 12L14.8285 19.0711L16.2427 17.6569L10.5858 12L16.2426 6.34317Z"
      fill="currentColor" />
  </symbol>
  <symbol id="gg-chevron-right-o" width="24" height="24" viewBox="0 0 24 24" fill="none">
    <path
      d="M11.0858 7.75739L15.3284 12L11.0858 16.2427L9.67157 14.8285L12.5 12L9.67157 9.1716L11.0858 7.75739Z"
      fill="currentColor" />
    <path fill-rule="evenodd" clip-rule="evenodd"
      d="M12 1C5.92487 1 1 5.92487 1 12C1 18.0751 5.92487 23 12 23C18.0751 23 23 18.0751 23 12C23 5.92487 18.0751 1 12 1ZM21 12C21 7.02944 16.9706 3 12 3C7.02944 3 3 7.02944 3 12C3 16.9706 7.02944 21 12 21C16.9706 21 21 16.9706 21 12Z"
      fill="currentColor" />
  </symbol>
  <symbol id="gg-chevron-right-r" width="24" height="24" viewBox="0 0 24 24" fill="none">
    <path
      d="M16.4853 12.0451L12.2426 7.80249L10.8284 9.2167L13.6568 12.0451L10.8284 14.8736L12.2426 16.2878L16.4853 12.0451Z"
      fill="currentColor" />
    <path fill-rule="evenodd" clip-rule="evenodd"
      d="M1 4C1 2.34315 2.34315 1 4 1H20C21.6569 1 23 2.34315 23 4V20C23 21.6569 21.6569 23 20 23H4C2.34315 23 1 21.6569 1 20V4ZM4 3H20C20.5523 3 21 3.44772 21 4V20C21 20.5523 20.5523 21 20 21H4C3.44772 21 3 20.5523 3 20V4C3 3.44772 3.44772 3 4 3Z"
      fill="currentColor" />
  </symbol>
  <symbol id="gg-chevron-right" width="24" height="24" viewBox="0 0 24 24" fill="none">
    <path
      d="M10.5858 6.34317L12 4.92896L19.0711 12L12 19.0711L10.5858 17.6569L16.2427 12L10.5858 6.34317Z"
      fill="currentColor" />
  </symbol>
  <symbol id="gg-chevron-up-o" width="24" height="24" viewBox="0 0 24 24" fill="none">
    <path
      d="M14.8285 14.8284L16.2427 13.4142L12.0001 9.17161L7.75745 13.4142L9.17166 14.8285L12.0001 12L14.8285 14.8284Z"
      fill="currentColor" />
    <path fill-rule="evenodd" clip-rule="evenodd"
      d="M1 12C1 18.0751 5.92487 23 12 23C18.0751 23 23 18.0751 23 12C23 5.92487 18.0751 1 12 1C5.92487 1 1 5.92487 1 12ZM12 3C7.02944 3 3 7.02944 3 12C3 16.9706 7.02944 21 12 21C16.9706 21 21 16.9706 21 12C21 7.02944 16.9706 3 12 3Z"
      fill="currentColor" />
  </symbol>
  <symbol id="gg-chevron-up-r" width="24" height="24" viewBox="0 0 24 24" fill="none">
    <path
      d="M14.8285 14.8284L16.2427 13.4142L12.0001 9.17161L7.75745 13.4142L9.17166 14.8285L12.0001 12L14.8285 14.8284Z"
      fill="currentColor" />
    <path fill-rule="evenodd" clip-rule="evenodd"
      d="M1 19C1 21.2091 2.79086 23 5 23H19C21.2091 23 23 21.2091 23 19V5C23 2.79086 21.2091 1 19 1H5C2.79086 1 1 2.79086 1 5V19ZM5 21H19C20.1046 21 21 20.1046 21 19V5C21 3.89543 20.1046 3 19 3H5C3.89543 3 3 3.89543 3 5V19C3 20.1046 3.89543 21 5 21Z"
      fill="currentColor" />
  </symbol>
  <symbol id="gg-chevron-up" width="24" height="24" viewBox="0 0 24 24" fill="none">
    <path
      d="M17.6569 16.2427L19.0711 14.8285L12.0001 7.75739L4.92896 14.8285L6.34317 16.2427L12.0001 10.5858L17.6569 16.2427Z"
      fill="currentColor" />
  </symbol>
  <symbol id="gg-select-o" width="24" height="24" viewBox="0 0 24 24" fill="none">
    <path
      d="M9.17154 11.508L7.75732 10.0938L12 5.85114L16.2426 10.0938L14.8284 11.508L12 8.67956L9.17154 11.508Z"
      fill="currentColor" />
    <path
      d="M9.17154 12.492L7.75732 13.9062L12 18.1489L16.2426 13.9062L14.8284 12.492L12 15.3204L9.17154 12.492Z"
      fill="currentColor" />
    <path fill-rule="evenodd" clip-rule="evenodd"
      d="M23 12C23 18.0751 18.0751 23 12 23C5.92487 23 1 18.0751 1 12C1 5.92487 5.92487 1 12 1C18.0751 1 23 5.92487 23 12ZM21 12C21 16.9706 16.9706 21 12 21C7.02944 21 3 16.9706 3 12C3 7.02944 7.02944 3 12 3C16.9706 3 21 7.02944 21 12Z"
      fill="currentColor" />
  </symbol>
  <symbol id="gg-select-r" width="24" height="24" viewBox="0 0 24 24" fill="none">
    <path
      d="M9.17154 11.508L7.75732 10.0938L12 5.85113L16.2426 10.0938L14.8284 11.508L12 8.67956L9.17154 11.508Z"
      fill="currentColor" />
    <path
      d="M9.17154 12.492L7.75732 13.9062L12 18.1489L16.2426 13.9062L14.8284 12.492L12 15.3204L9.17154 12.492Z"
      fill="currentColor" />
    <path fill-rule="evenodd" clip-rule="evenodd"
      d="M1 5C1 2.79086 2.79086 1 5 1H19C21.2091 1 23 2.79086 23 5V19C23 21.2091 21.2091 23 19 23H5C2.79086 23 1 21.2091 1 19V5ZM5 3H19C20.1046 3 21 3.89543 21 5V19C21 20.1046 20.1046 21 19 21H5C3.89543 21 3 20.1046 3 19V5C3 3.89543 3.89543 3 5 3Z"
      fill="currentColor" />
  </symbol>
  <symbol id="gg-select" width="24" height="24" viewBox="0 0 24 24" fill="none">
    <path
      d="M6 9.65685L7.41421 11.0711L11.6569 6.82843L15.8995 11.0711L17.3137 9.65685L11.6569 4L6 9.65685Z"
      fill="currentColor" />
    <path
      d="M6 14.4433L7.41421 13.0291L11.6569 17.2717L15.8995 13.0291L17.3137 14.4433L11.6569 20.1001L6 14.4433Z"
      fill="currentColor" />
  </symbol>
  <symbol id="gg-sort-az" width="24" height="24" viewBox="0 0 24 24" fill="none">
    <path
      d="M6 8C6 7.44772 6.44772 7 7 7H17C17.5523 7 18 7.44772 18 8C18 8.55228 17.5523 9 17 9H7C6.44772 9 6 8.55228 6 8Z"
      fill="currentColor" />
    <path
      d="M8 12C8 11.4477 8.44772 11 9 11H15C15.5523 11 16 11.4477 16 12C16 12.5523 15.5523 13 15 13H9C8.44772 13 8 12.5523 8 12Z"
      fill="currentColor" />
    <path
      d="M11 15C10.4477 15 10 15.4477 10 16C10 16.5523 10.4477 17 11 17H13C13.5523 17 14 16.5523 14 16C14 15.4477 13.5523 15 13 15H11Z"
      fill="currentColor" />
  </symbol>
  <symbol id="gg-sort-za" width="24" height="24" viewBox="0 0 24 24" fill="none">
    <path
      d="M6 16C6 16.5523 6.44772 17 7 17H17C17.5523 17 18 16.5523 18 16C18 15.4477 17.5523 15 17 15H7C6.44772 15 6 15.4477 6 16Z"
      fill="currentColor" />
    <path
      d="M8 12C8 12.5523 8.44772 13 9 13H15C15.5523 13 16 12.5523 16 12C16 11.4477 15.5523 11 15 11H9C8.44772 11 8 11.4477 8 12Z"
      fill="currentColor" />
    <path
      d="M11 9C10.4477 9 10 8.55229 10 8C10 7.44771 10.4477 7 11 7H13C13.5523 7 14 7.44771 14 8C14 8.55229 13.5523 9 13 9H11Z"
      fill="currentColor" />
  </symbol>
</svg>